<svg width="52" height="43" viewBox="0 0 52 43" fill="none" xmlns="http://www.w3.org/2000/svg">
<g clip-path="url(#clip0)">
<path d="M4.84714 0H46.5047C47.7903 0 49.0231 0.492675 49.9322 1.36964C50.8412 2.24661 51.3519 3.43603 51.3519 4.67625C51.3519 5.91647 50.8412 7.10589 49.9322 7.98286C49.0231 8.85982 47.7903 9.3525 46.5047 9.3525H4.84714C3.5616 9.3525 2.32871 8.85982 1.4197 7.98286C0.51068 7.10589 0 5.91647 0 4.67625C0 3.43603 0.51068 2.24661 1.4197 1.36964C2.32871 0.492675 3.5616 0 4.84714 0V0Z" fill="url(#paint0_linear)"/>
<path d="M4.84714 16.8237H46.5047C47.1413 16.8237 47.7716 16.9447 48.3596 17.1797C48.9477 17.4147 49.4821 17.7591 49.9322 18.1934C50.3823 18.6276 50.7393 19.1431 50.9829 19.7105C51.2265 20.2778 51.3519 20.8859 51.3519 21.5C51.3519 22.1141 51.2265 22.7222 50.9829 23.2895C50.7393 23.8569 50.3823 24.3724 49.9322 24.8066C49.4821 25.2408 48.9477 25.5853 48.3596 25.8203C47.7716 26.0553 47.1413 26.1762 46.5047 26.1762H4.84714C4.21061 26.1762 3.5803 26.0553 2.99222 25.8203C2.40414 25.5853 1.86979 25.2408 1.4197 24.8066C0.969597 24.3724 0.612559 23.8569 0.368967 23.2895C0.125375 22.7222 0 22.1141 0 21.5C0 20.8859 0.125375 20.2778 0.368967 19.7105C0.612559 19.1431 0.969597 18.6276 1.4197 18.1934C1.86979 17.7591 2.40414 17.4147 2.99222 17.1797C3.5803 16.9447 4.21061 16.8237 4.84714 16.8237Z" fill="url(#paint1_linear)"/>
<path d="M4.84714 33.6494H46.5047C47.1413 33.6494 47.7716 33.7704 48.3596 34.0054C48.9477 34.2404 49.4821 34.5848 49.9322 35.0191C50.3823 35.4533 50.7393 35.9688 50.9829 36.5361C51.2265 37.1035 51.3519 37.7116 51.3519 38.3257C51.3519 38.9398 51.2265 39.5478 50.9829 40.1152C50.7393 40.6825 50.3823 41.198 49.9322 41.6323C49.4821 42.0665 48.9477 42.411 48.3596 42.646C47.7716 42.881 47.1413 43.0019 46.5047 43.0019H4.84714C4.21061 43.0019 3.5803 42.881 2.99222 42.646C2.40414 42.411 1.86979 42.0665 1.4197 41.6323C0.969597 41.198 0.612559 40.6825 0.368967 40.1152C0.125375 39.5478 0 38.9398 0 38.3257C0 37.7116 0.125375 37.1035 0.368967 36.5361C0.612559 35.9688 0.969597 35.4533 1.4197 35.0191C1.86979 34.5848 2.40414 34.2404 2.99222 34.0054C3.5803 33.7704 4.21061 33.6494 4.84714 33.6494Z" fill="url(#paint2_linear)"/>
</g>
<defs>
<linearGradient id="paint0_linear" x1="25.6759" y1="0" x2="25.6759" y2="9.3525" gradientUnits="userSpaceOnUse">
<stop stop-color="#FFE2DB"/>
<stop offset="1" stop-color="#FF3131"/>
</linearGradient>
<linearGradient id="paint1_linear" x1="25.6759" y1="16.8237" x2="25.6759" y2="26.1762" gradientUnits="userSpaceOnUse">
<stop stop-color="#FFE2DB"/>
<stop offset="1" stop-color="#FF3131"/>
</linearGradient>
<linearGradient id="paint2_linear" x1="25.6759" y1="33.6494" x2="25.6759" y2="43.0019" gradientUnits="userSpaceOnUse">
<stop stop-color="#FFE2DB"/>
<stop offset="1" stop-color="#FF3131"/>
</linearGradient>
<clipPath id="clip0">
<rect width="52" height="43" fill="white"/>
</clipPath>
</defs>
</svg>
