<svg width="40" height="40" viewBox="0 0 40 40" fill="none" xmlns="http://www.w3.org/2000/svg">
<path d="M20 40C31.0457 40 40 31.0457 40 20C40 8.95431 31.0457 0 20 0C8.95431 0 0 8.95431 0 20C0 31.0457 8.95431 40 20 40Z" fill="#4176FA"/>
<path d="M27.17 16.5214C21.3933 16.5214 21.3858 22.2763 21.3858 22.3059C21.3858 22.3059 20.9901 28.068 27.17 28.068C27.17 28.068 32.3238 28.361 32.3238 24.0578H29.6773C29.6773 24.0578 29.7651 25.6779 27.258 25.6779C27.258 25.6779 24.6116 25.854 24.6116 23.0607H32.4118C32.4118 23.0607 33.2696 16.5214 27.17 16.5214ZM24.582 21.0445C24.582 21.0445 24.9046 18.7279 27.2288 18.7279C29.5601 18.7279 29.5233 21.0445 29.5233 21.0445H24.582ZM17.97 19.5639C17.97 19.5639 20.2645 19.3953 20.2645 16.6975C20.2645 14.0072 18.3878 12.6874 16.0052 12.6874H8.16785V27.7524H16.0045C16.0045 27.7524 20.7918 27.8993 20.7918 23.3027C20.7922 23.3027 20.9975 19.5639 17.97 19.5639ZM11.6211 15.3631H16.0048C16.0048 15.3631 17.068 15.3631 17.068 16.9317C17.068 18.5004 16.4448 18.7279 15.7335 18.7279H11.6211V15.3631ZM15.7852 25.0768H11.6211V21.0445H16.0048C16.0048 21.0445 17.596 21.0299 17.5885 23.1191C17.5885 24.8789 16.4084 25.0621 15.7852 25.0768ZM23.9296 13.5744V15.4294H30.1465V13.5744H23.9296Z" fill="#F1F2F2"/>
</svg>
