<svg width="32" height="32" viewBox="0 0 32 32" fill="none" xmlns="http://www.w3.org/2000/svg">
<g clip-path="url(#clip0)">
<path d="M14.8368 8.3504C14.9836 8.51336 15.163 8.64365 15.3634 8.73284C15.5638 8.82202 15.7807 8.86811 16 8.86811C16.2193 8.86811 16.4362 8.82202 16.6366 8.73284C16.837 8.64365 17.0164 8.51336 17.1632 8.3504L17.92 7.52C18.1369 7.27995 18.4228 7.11291 18.7384 7.04181C19.054 6.9707 19.3839 6.99902 19.6828 7.12286C19.9817 7.24671 20.2349 7.46002 20.4077 7.73352C20.5805 8.00701 20.6645 8.32729 20.648 8.6504L20.5912 9.7704C20.5802 9.98888 20.6151 10.2072 20.6937 10.4114C20.7722 10.6156 20.8926 10.8011 21.0472 10.9559C21.2018 11.1107 21.3871 11.2314 21.5911 11.3102C21.7952 11.389 22.0135 11.4243 22.232 11.4136L23.352 11.3568C23.6749 11.3409 23.9948 11.4252 24.2679 11.5982C24.541 11.7713 24.7539 12.0245 24.8775 12.3233C25.001 12.622 25.0291 12.9517 24.958 13.267C24.8868 13.5824 24.7199 13.868 24.48 14.0848L23.6464 14.8368C23.4837 14.9838 23.3535 15.1633 23.2645 15.3638C23.1754 15.5642 23.1294 15.7811 23.1294 16.0004C23.1294 16.2197 23.1754 16.4366 23.2645 16.637C23.3535 16.8375 23.4837 17.017 23.6464 17.164L24.48 17.916C24.7201 18.1329 24.8871 18.4188 24.9582 18.7344C25.0293 19.05 25.001 19.3799 24.8771 19.6788C24.7533 19.9776 24.54 20.2309 24.2665 20.4037C23.993 20.5765 23.6727 20.6605 23.3496 20.644L22.2296 20.5872C22.0106 20.5759 21.7917 20.6108 21.5871 20.6894C21.3824 20.7681 21.1966 20.8889 21.0415 21.0439C20.8865 21.199 20.7657 21.3848 20.6871 21.5895C20.6084 21.7941 20.5735 22.013 20.5848 22.232L20.6416 23.352C20.6559 23.6735 20.5709 23.9916 20.3982 24.2631C20.2254 24.5346 19.9733 24.7463 19.676 24.8695C19.3787 24.9927 19.0507 25.0214 18.7366 24.9518C18.4224 24.8821 18.1373 24.7174 17.92 24.48L17.1672 23.6472C17.0203 23.4845 16.8408 23.3544 16.6405 23.2653C16.4401 23.1763 16.2233 23.1303 16.004 23.1303C15.7847 23.1303 15.5679 23.1763 15.3676 23.2653C15.1672 23.3544 14.9877 23.4845 14.8408 23.6472L14.0848 24.48C13.8679 24.7185 13.5826 24.8842 13.268 24.9547C12.9534 25.0251 12.6248 24.9968 12.3268 24.8737C12.0289 24.7505 11.7762 24.5385 11.6032 24.2664C11.4302 23.9944 11.3452 23.6756 11.36 23.3536L11.4176 22.2336C11.4289 22.0146 11.394 21.7957 11.3154 21.5911C11.2367 21.3864 11.1159 21.2006 10.9609 21.0455C10.8058 20.8905 10.62 20.7697 10.4153 20.691C10.2107 20.6124 9.99178 20.5775 9.77281 20.5888L8.65281 20.6456C8.32984 20.6625 8.00956 20.5789 7.73596 20.4065C7.46236 20.234 7.24884 19.9811 7.12471 19.6825C7.00059 19.3838 6.97195 19.0541 7.04273 18.7385C7.11351 18.423 7.28023 18.137 7.52001 17.92L8.35281 17.168C8.51557 17.021 8.64567 16.8415 8.73472 16.641C8.82377 16.4406 8.86978 16.2237 8.86978 16.0044C8.86978 15.7851 8.82377 15.5682 8.73472 15.3678C8.64567 15.1673 8.51557 14.9878 8.35281 14.8408L7.52001 14.0848C7.28101 13.868 7.11479 13.5827 7.04409 13.2678C6.97338 12.953 7.00164 12.624 7.12499 12.3258C7.24834 12.0277 7.46076 11.7749 7.73323 11.602C8.00569 11.4291 8.3249 11.3446 8.64721 11.36L9.76721 11.4168C9.98659 11.4283 10.2059 11.3936 10.411 11.3148C10.6161 11.2361 10.8023 11.1151 10.9576 10.9596C11.1129 10.8042 11.2337 10.6179 11.3123 10.4127C11.3908 10.2076 11.4254 9.98817 11.4136 9.7688L11.36 8.648C11.3449 8.32581 11.4296 8.00681 11.6024 7.73451C11.7753 7.46222 12.028 7.2499 12.326 7.12653C12.6241 7.00316 12.9529 6.97474 13.2676 7.04516C13.5824 7.11558 13.8678 7.2814 14.0848 7.52L14.8368 8.3504Z" stroke="white" stroke-width="1.2" stroke-linecap="round" stroke-linejoin="round"/>
<path d="M12.4 16.0008C12.4 16.9556 12.7793 17.8712 13.4544 18.5464C14.1296 19.2215 15.0452 19.6008 16 19.6008C16.9548 19.6008 17.8705 19.2215 18.5456 18.5464C19.2207 17.8712 19.6 16.9556 19.6 16.0008C19.6 15.046 19.2207 14.1303 18.5456 13.4552C17.8705 12.7801 16.9548 12.4008 16 12.4008C15.0452 12.4008 14.1296 12.7801 13.4544 13.4552C12.7793 14.1303 12.4 15.046 12.4 16.0008V16.0008Z" stroke="white" stroke-width="1.2" stroke-linecap="round" stroke-linejoin="round"/>
</g>
<defs>
<clipPath id="clip0">
<rect width="19.2" height="19.2" fill="white" transform="translate(6.40002 6.4)"/>
</clipPath>
</defs>
</svg>
