<svg width="32" height="32" viewBox="0 0 32 32" fill="none" xmlns="http://www.w3.org/2000/svg">
<path fill-rule="evenodd" clip-rule="evenodd" d="M15.1795 9.23077C11.8941 9.23077 9.23077 11.8941 9.23077 15.1795C9.23077 18.4649 11.8941 21.1282 15.1795 21.1282C16.7882 21.1282 18.2478 20.4896 19.3185 19.4521C19.337 19.427 19.3575 19.403 19.3802 19.3802C19.403 19.3575 19.427 19.337 19.4521 19.3185C20.4896 18.2478 21.1282 16.7882 21.1282 15.1795C21.1282 11.8941 18.4649 9.23077 15.1795 9.23077ZM20.6727 19.8024C21.7249 18.5534 22.359 16.9405 22.359 15.1795C22.359 11.2144 19.1446 8 15.1795 8C11.2144 8 8 11.2144 8 15.1795C8 19.1446 11.2144 22.359 15.1795 22.359C16.9405 22.359 18.5534 21.7249 19.8024 20.6727L22.9495 23.8198C23.1898 24.0601 23.5794 24.0601 23.8198 23.8198C24.0601 23.5794 24.0601 23.1898 23.8198 22.9495L20.6727 19.8024Z" fill="white"/>
</svg>
